<svg xmlns="http://www.w3.org/2000/svg" xmlns:xlink="http://www.w3.org/1999/xlink" viewBox="0 0 1000 1000"><defs><style>.cls-1,.cls-8{fill:#fff;}.cls-2{fill:url(#linear-gradient);}.cls-3{fill:url(#linear-gradient-2);}.cls-4{fill:#f7f7f7;}.cls-5{fill:#424242;}.cls-6{font-size:293px;fill:#f1f2f2;font-family:UVNBaiSau, UVN Bai Sau;letter-spacing:-0.02em;}.cls-7{letter-spacing:0em;}.cls-8{font-size:272px;font-family:MyriadPro-Regular, Myriad Pro;}.cls-9{letter-spacing:0em;}</style><linearGradient id="linear-gradient" x1="167.28" y1="303.99" x2="457.77" y2="559.03" gradientUnits="userSpaceOnUse"><stop offset="0" stop-color="aqua"/><stop offset="1" stop-color="#0054d0"/></linearGradient><linearGradient id="linear-gradient-2" x1="123.95" y1="263.33" x2="553.96" y2="646.46" xlink:href="#linear-gradient"/></defs><title>Asset 3</title><g id="Layer_2" data-name="Layer 2"><g id="Layer_1-2" data-name="Layer 1"><rect id="Background" class="cls-1" width="1000" height="1000"/><path class="cls-2" d="M450.54,616H229.46a47.93,47.93,0,0,1-47.52-54.14l34.82-266.59a14.16,14.16,0,0,1,14-12.32H449.2a14.16,14.16,0,0,1,14,12.32l34.82,266.59A47.93,47.93,0,0,1,450.54,616Z"/><path class="cls-3" d="M450.54,616H229.46a47.79,47.79,0,0,1-38.89-19.92l2-.59s69.35-22.24,146.77-109.59c.17.42.33.85.47,1.3,6.66,20.52-11.76,72-23.62,101.55-.29.71-.58,1.42-.85,2.12-1.69,4.16-3.22,7.81-4.48,10.81-2.34,5.48-3.82,8.75-3.82,8.75,85-74,70.55-134.13,79.29-162.87a71.59,71.59,0,0,1,4.9-11.66c1.07-2.06,2.23-4.18,3.49-6.32,3.77-6.44,8.33-13.15,13.1-19.7a515.48,515.48,0,0,1,34.27-41.42,385.15,385.15,0,0,1-33.64,21.95,788.74,788.74,0,0,0,51-102.94l0-.12a14.1,14.1,0,0,1,3.78,7.92l34.82,266.59A47.93,47.93,0,0,1,450.54,616Z"/><circle class="cls-4" cx="263.26" cy="317.31" r="12.35" transform="translate(-90.12 529.71) rotate(-81.33)"/><circle class="cls-4" cx="416.74" cy="317.31" r="12.35" transform="translate(36.54 677.6) rotate(-80.75)"/><path class="cls-5" d="M416.74,321.62a4.34,4.34,0,0,1-4.35-4.35V281.54a72.39,72.39,0,0,0-144.78,0v35.73a4.35,4.35,0,0,1-8.7,0V281.54a81.09,81.09,0,0,1,162.18,0v35.73A4.35,4.35,0,0,1,416.74,321.62Z"/><text class="cls-6" transform="translate(225.67 565)">P<tspan class="cls-7" x="153.65" y="0">i</tspan></text><text class="cls-8" transform="translate(519 568.67)"><tspan class="cls-9">S</tspan><tspan x="134.91" y="0">ale</tspan></text></g></g></svg>